<svg xmlns="http://www.w3.org/2000/svg" viewBox="0 0 300 300"><path d="M207.597 115.365h-71.22l-18.759-17.029H85.649a4.439 4.439 0 0 0-4.435 4.432v108.899a4.439 4.439 0 0 0 4.435 4.432h3.369l17.688-91.03h105.32v-5.27a4.438 4.438 0 0 0-4.429-4.434z"/><path d="M149.996 0C67.157 0 .001 67.161.001 149.997S67.157 300 149.996 300s150.003-67.163 150.003-150.003S232.835 0 149.996 0zm77.245 212.721c-.542 10.333-8.948 18.601-19.343 18.912-.101.005-.197.031-.301.031l-9.231.005-112.72-.005c-11.023 0-19.991-8.969-19.991-19.994V102.768c0-11.025 8.969-19.994 19.997-19.994h37.975l18.759 17.029h65.211c11.023 0 19.991 8.969 19.991 19.997v5.27l17.904.003-18.251 87.648z"/></svg>