<svg xmlns="http://www.w3.org/2000/svg" style="width:0; height:0; visibility:hidden;">
    <symbol id="icon_checkmark" viewBox="0 0 16 16">
       <path fill="currentColor" d="M13.5 2l-7.5 7.5-3.5-3.5-2.5 2.5 6 6 10-10z"/> 
    </symbol>
    <symbol id="icon_computer" viewBox="0 0 512 512">
       <g> <g> <rect x="48" y="107.984" style="fill:#FFFFFF;" width="416" height="256"/> </g> <g> <rect x="48" y="107.984" style="fill:#FF4F19;" width="416" height="64"/> </g> <g> <path style="fill:#5C546A;" d="M459.133,75.984H52.852C32.531,75.984,16,92.477,16,112.75v291.234c0,4.422,3.578,8,8,8h464
			c4.422,0,8-3.578,8-8V112.75C496,92.477,479.461,75.984,459.133,75.984z M48,355.984v-240c0-4.418,3.582-8,8-8h400
			c4.418,0,8,3.582,8,8v240c0,4.418-3.582,8-8,8H56C51.582,363.984,48,360.402,48,355.984z"/> </g> <g> <path style="fill:#B9BBC1;" d="M504,395.984H8c-4.422,0-8,3.578-8,8l0,0c0,17.664,14.367,32.031,32.031,32.031h447.937
			c17.664,0,32.031-14.367,32.031-32.031l0,0C512,399.562,508.422,395.984,504,395.984z"/> </g> <g> <g> <path style="fill:#FFD200;" d="M144,147.984H88c-4.422,0-8-3.578-8-8c0-4.422,3.578-8,8-8h56c4.422,0,8,3.578,8,8
				C152,144.406,148.422,147.984,144,147.984z"/> </g> </g> <g> <g> <path style="fill:#FFFFFF;" d="M288,147.984h-8c-4.422,0-8-3.578-8-8c0-4.422,3.578-8,8-8h8c4.422,0,8,3.578,8,8
				C296,144.406,292.422,147.984,288,147.984z"/> </g> </g> <g> <g> <path style="fill:#FFFFFF;" d="M328,147.984h-8c-4.422,0-8-3.578-8-8c0-4.422,3.578-8,8-8h8c4.422,0,8,3.578,8,8
				C336,144.406,332.422,147.984,328,147.984z"/> </g> </g> <g> <g> <path style="fill:#FFFFFF;" d="M368,147.984h-8c-4.422,0-8-3.578-8-8c0-4.422,3.578-8,8-8h8c4.422,0,8,3.578,8,8
				C376,144.406,372.422,147.984,368,147.984z"/> </g> </g> <g> <g> <path style="fill:#FFFFFF;" d="M408,147.984h-8c-4.422,0-8-3.578-8-8c0-4.422,3.578-8,8-8h8c4.422,0,8,3.578,8,8
				C416,144.406,412.422,147.984,408,147.984z"/> </g> </g> <g> <path style="fill:#53DCFF;" d="M224,339.984H88c-4.418,0-8-3.582-8-8v-128c0-4.418,3.582-8,8-8h136c4.418,0,8,3.582,8,8v128
			C232,336.402,228.418,339.984,224,339.984z"/> </g> <g> <g> <path style="fill:#FF4F19;" d="M416,211.984H264c-4.422,0-8-3.578-8-8c0-4.422,3.578-8,8-8h152c4.422,0,8,3.578,8,8
				C424,208.406,420.422,211.984,416,211.984z"/> </g> </g> <g> <g> <path style="fill:#B9BBC1;" d="M328,275.984h-64c-4.422,0-8-3.578-8-8s3.578-8,8-8h64c4.422,0,8,3.578,8,8
				S332.422,275.984,328,275.984z"/> </g> </g> <g> <g> <path style="fill:#B9BBC1;" d="M328,307.984h-64c-4.422,0-8-3.578-8-8s3.578-8,8-8h64c4.422,0,8,3.578,8,8
				S332.422,307.984,328,307.984z"/> </g> </g> <g> <g> <path style="fill:#B9BBC1;" d="M328,339.984h-64c-4.422,0-8-3.578-8-8s3.578-8,8-8h64c4.422,0,8,3.578,8,8
				S332.422,339.984,328,339.984z"/> </g> </g> <g> <g> <path style="fill:#B9BBC1;" d="M424,275.984h-64c-4.422,0-8-3.578-8-8s3.578-8,8-8h64c4.422,0,8,3.578,8,8
				S428.422,275.984,424,275.984z"/> </g> </g> <g> <g> <path style="fill:#B9BBC1;" d="M424,307.984h-64c-4.422,0-8-3.578-8-8s3.578-8,8-8h64c4.422,0,8,3.578,8,8
				S428.422,307.984,424,307.984z"/> </g> </g> <g> <g> <path style="fill:#B9BBC1;" d="M424,339.984h-64c-4.422,0-8-3.578-8-8s3.578-8,8-8h64c4.422,0,8,3.578,8,8
				S428.422,339.984,424,339.984z"/> </g> </g> <g> <g> <path style="fill:#E9001E;" d="M368,243.984H264c-4.422,0-8-3.578-8-8c0-4.422,3.578-8,8-8h104c4.422,0,8,3.578,8,8
				C376,240.406,372.422,243.984,368,243.984z"/> </g> </g> <g> <path style="fill:#8B8996;" d="M224,411.984h64c8.836,0,16-7.164,16-16h-96C208,404.821,215.163,411.984,224,411.984z"/> </g> </g>                
    </symbol>
    <symbol id="icon_email" viewBox="0 0 21 21">
       <path fill="currentColor" d="M16.786,5H3.213C2.547,5,2.003,5.545,2,6.213v8.572C2,15.455,2.543,16,3.213,16h13.573C17.457,16,18,15.455,18,14.785V6.213C17.998,5.545,17.454,5,16.786,5z M16.607,7.773l0.009,0.012l-6.054,4.041l-0.011-0.016C10.392,11.92,10.208,12,9.999,12c-0.208,0-0.392-0.08-0.551-0.189l-0.011,0.016L3.384,7.785l0.009-0.012C3.159,7.59,3,7.318,3,7c0-0.551,0.447-1,0.999-1c0.24,0,0.452,0.096,0.624,0.236l0.006-0.008L10,9.809l5.371-3.58l0.007,0.008C15.549,6.096,15.761,6,16.001,6C16.553,6,17,6.449,17,7C17,7.318,16.841,7.59,16.607,7.773z"/> <rect opacity="0" fill="#4387FD" width="21" height="21"/> 
    </symbol>
    <symbol id="icon_fb" viewBox="0 0 16 16">
       <path fill="currentColor" d="M9.5 3h2.5v-3h-2.5c-1.93 0-3.5 1.57-3.5 3.5v1.5h-2v3h2v8h3v-8h2.5l0.5-3h-3v-1.5c0-0.271 0.229-0.5 0.5-0.5z"/> 
    </symbol>
    <symbol id="icon_github" viewBox="0 0 16 16">
       <path fill="currentColor" d="M8 0.198c-4.418 0-8 3.582-8 8 0 3.535 2.292 6.533 5.471 7.591 0.4 0.074 0.547-0.174 0.547-0.385 0-0.191-0.008-0.821-0.011-1.489-2.226 0.484-2.695-0.944-2.695-0.944-0.364-0.925-0.888-1.171-0.888-1.171-0.726-0.497 0.055-0.486 0.055-0.486 0.803 0.056 1.226 0.824 1.226 0.824 0.714 1.223 1.872 0.869 2.328 0.665 0.072-0.517 0.279-0.87 0.508-1.070-1.777-0.202-3.645-0.888-3.645-3.954 0-0.873 0.313-1.587 0.824-2.147-0.083-0.202-0.357-1.015 0.077-2.117 0 0 0.672-0.215 2.201 0.82 0.638-0.177 1.322-0.266 2.002-0.269 0.68 0.003 1.365 0.092 2.004 0.269 1.527-1.035 2.198-0.82 2.198-0.82 0.435 1.102 0.162 1.916 0.079 2.117 0.513 0.56 0.823 1.274 0.823 2.147 0 3.073-1.872 3.749-3.653 3.947 0.287 0.248 0.543 0.735 0.543 1.481 0 1.070-0.009 1.932-0.009 2.195 0 0.213 0.144 0.462 0.55 0.384 3.177-1.059 5.466-4.057 5.466-7.59 0-4.418-3.582-8-8-8z"/> 
    </symbol>
    <symbol id="icon_linkedin" viewBox="0 0 430.117 430.117">
       <g> <path id="LinkedIn" fill="currentColor" d="M430.117,261.543V420.56h-92.188V272.193c0-37.271-13.334-62.707-46.703-62.707
		c-25.473,0-40.632,17.142-47.301,33.724c-2.432,5.928-3.058,14.179-3.058,22.477V420.56h-92.219c0,0,1.242-251.285,0-277.32h92.21
		v39.309c-0.187,0.294-0.43,0.611-0.606,0.896h0.606v-0.896c12.251-18.869,34.13-45.824,83.102-45.824
		C384.633,136.724,430.117,176.361,430.117,261.543z M52.183,9.558C20.635,9.558,0,30.251,0,57.463
		c0,26.619,20.038,47.94,50.959,47.94h0.616c32.159,0,52.159-21.317,52.159-47.94C103.128,30.251,83.734,9.558,52.183,9.558z
		 M5.477,420.56h92.184v-277.32H5.477V420.56z"/> </g>                
    </symbol>
    <symbol id="icon_orientation" viewBox="0 0 496 496">
       <g> <g> <path style="fill:#FF9600;" d="M481.656,226.344l-40-40c-1.5-1.5-3.531-2.344-5.656-2.344H244c-4.422,0-8,3.582-8,8v80
			c0,4.418,3.578,8,8,8h192c2.125,0,4.156-0.844,5.656-2.344l40-40C484.781,234.531,484.781,229.469,481.656,226.344z"/> </g> <g> <path style="fill:#FFD200;" d="M212,104H60c-2.125,0-4.156,0.844-5.656,2.344l-40,40c-3.125,3.125-3.125,8.188,0,11.312l40,40
			c1.5,1.5,3.531,2.344,5.656,2.344h152c4.422,0,8-3.582,8-8v-80C220,107.582,216.422,104,212,104z"/> </g> <g> <path style="fill:#FFEF43;" d="M425.656,66.344l-40-40c-1.5-1.5-3.531-2.344-5.656-2.344H244c-4.422,0-8,3.582-8,8v80
			c0,4.418,3.578,8,8,8h136c2.125,0,4.156-0.844,5.656-2.344l40-40C428.781,74.531,428.781,69.469,425.656,66.344z"/> </g> <g> <path style="fill:#7E5C62;" d="M244,496h-32V16c0-8.837,7.163-16,16-16h0c8.837,0,16,7.163,16,16V496z"/> </g> <g> <g> <path style="fill:#FFFFFF;" d="M372,80h-48c-4.422,0-8-3.582-8-8c0-4.418,3.578-8,8-8h48c4.422,0,8,3.582,8,8
				C380,76.418,376.422,80,372,80z"/> </g> </g> <g> <g> <path style="fill:#FFFFFF;" d="M292,80h-8c-4.422,0-8-3.582-8-8c0-4.418,3.578-8,8-8h8c4.422,0,8,3.582,8,8
				C300,76.418,296.422,80,292,80z"/> </g> </g> <g> <g> <path style="fill:#FFD200;" d="M428,240h-32c-4.422,0-8-3.582-8-8c0-4.418,3.578-8,8-8h32c4.422,0,8,3.582,8,8
				C436,236.418,432.422,240,428,240z"/> </g> </g> <g> <g> <path style="fill:#FFD200;" d="M364,240h-80c-4.422,0-8-3.582-8-8c0-4.418,3.578-8,8-8h80c4.422,0,8,3.582,8,8
				C372,236.418,368.422,240,364,240z"/> </g> </g> <g> <g> <path style="fill:#FFEFBC;" d="M172,160h-32c-4.422,0-8-3.582-8-8s3.578-8,8-8h32c4.422,0,8,3.582,8,8S176.422,160,172,160z"/> </g> </g> <g> <g> <path style="fill:#FFEFBC;" d="M108,160H76c-4.422,0-8-3.582-8-8s3.578-8,8-8h32c4.422,0,8,3.582,8,8S112.422,160,108,160z"/> </g> </g> </g>                
    </symbol>
    <symbol id="icon_people" viewBox="0 0 512 512">
       <g> <g> <g> <path style="fill:#9F6459;" d="M504,360H8c-4.422,0-8-3.582-8-8s3.578-8,8-8h496c4.422,0,8,3.582,8,8S508.422,360,504,360z"/> </g> </g> <g> <g> <path style="fill:#FF4F19;" d="M327.043,325.006l-9.07-54.296h-0.026c-1.259-7.342-6.307-14.945-14.901-17.351
				c-0.106-0.03-0.212-0.053-0.321-0.069l-21.161-3.175c-0.129-0.019-0.406-0.03-0.538-0.03c-1.338,0-2.467,0.998-2.63,2.327
				c-1.127,9.149-8.691,16.333-18.425,18.297h-10.62c-9.735-1.965-17.299-9.147-18.424-18.297c-0.166-1.368-1.398-2.397-2.698-2.326
				c-0.155-0.009-0.308,0.004-0.471,0.028l-21.161,3.175c-0.109,0.016-0.215,0.039-0.321,0.069
				c-8.594,2.406-13.641,10.009-14.901,17.351h-0.026l-9.07,54.296c-1.878,9.86,5.68,18.994,15.717,18.994h0.665h112h0.665
				C321.362,344,328.921,334.866,327.043,325.006z"/> </g> <g> <path style="fill:#FDC88E;" d="M254.66,247.435c-9.26,0-17.661-3.974-23.86-10.396c-0.005,3.849-0.144,9.404-1.165,13.457
				c0.669,0.409,1.189,1.081,1.29,1.917c1.323,10.764,11.525,18.88,23.734,18.88c12.206,0,22.409-8.117,23.734-18.88
				c0.103-0.837,0.611-1.508,1.291-1.915c-1.021-4.054-1.161-9.609-1.165-13.459C272.322,243.461,263.92,247.435,254.66,247.435z"/> </g> <g> <path style="fill:#FFB980;" d="M278.002,237.528c-6.147,6.123-14.329,9.907-23.342,9.907c-9.26,0-17.661-3.974-23.86-10.396
				c-0.005,3.849-0.144,9.404-1.165,13.457c0.669,0.409,1.189,1.081,1.29,1.917c0.585,4.758,2.909,8.995,6.37,12.246
				C253.257,262.411,271.374,246.65,278.002,237.528z"/> </g> <g> <path style="fill:#FFE1B2;" d="M278.519,181.161h-45.066c-7.308,0-13.255,5.947-13.255,13.255v15.906
				c0,20.465,15.461,37.114,34.463,37.114s34.463-16.649,34.463-37.114v-18.557C289.123,185.918,284.367,181.161,278.519,181.161z"/> </g> <g> <path style="fill:#7E5449;" d="M273.217,152h-34.463c-4.986,0-9.177,3.459-10.306,8.102c-9.126,1.16-16.204,8.973-16.204,18.408
				v13.255c0,6.832,2.9,13.205,7.953,17.735v-15.084c0-7.308,5.947-13.255,13.255-13.255h45.066c5.848,0,10.604,4.757,10.604,10.604
				v17.732c5.054-4.529,7.953-10.902,7.953-17.732v-15.906C297.076,162.703,286.374,152,273.217,152z"/> </g> <g> <path style="fill:#D8DCE1;" d="M298.66,344h-88c-4.418,0-8-3.582-8-8v-44c0-4.418,3.582-8,8-8h88c4.418,0,8,3.582,8,8v44
				C306.66,340.418,303.079,344,298.66,344z"/> </g> <g> <circle style="fill:#FFFFFF;" cx="254.66" cy="316" r="8"/> </g> </g> <g> <g> <path style="fill:#00E68C;" d="M159.712,325.006l-9.07-54.296h-0.026c-1.259-7.342-6.307-14.945-14.901-17.351
				c-0.106-0.03-0.212-0.053-0.321-0.069l-21.161-3.175c-0.129-0.019-0.406-0.03-0.538-0.03c-1.338,0-2.467,0.998-2.63,2.327
				c-1.127,9.149-8.691,16.333-18.425,18.297h-10.62c-9.735-1.965-17.299-9.147-18.424-18.297c-0.166-1.368-1.398-2.397-2.698-2.326
				c-0.155-0.009-0.308,0.004-0.471,0.028l-21.161,3.175c-0.109,0.016-0.215,0.039-0.321,0.069
				c-8.594,2.406-13.641,10.009-14.901,17.351h-0.026l-9.07,54.296C13.07,334.866,20.629,344,30.665,344h0.665h112h0.665
				C154.032,344,161.59,334.866,159.712,325.006z"/> </g> <g> <path style="fill:#FDC88E;" d="M87.33,247.435c-9.26,0-17.661-3.974-23.86-10.396c-0.005,3.849-0.144,9.404-1.165,13.457
				c0.669,0.409,1.189,1.081,1.29,1.917c1.323,10.764,11.525,18.88,23.734,18.88c12.206,0,22.409-8.117,23.734-18.88
				c0.103-0.837,0.611-1.508,1.291-1.915c-1.021-4.054-1.161-9.609-1.165-13.459C104.991,243.461,96.59,247.435,87.33,247.435z"/> </g> <g> <path style="fill:#FFB980;" d="M110.672,237.528c-6.147,6.123-14.329,9.907-23.342,9.907c-9.26,0-17.661-3.974-23.86-10.396
				c-0.005,3.849-0.144,9.404-1.165,13.457c0.669,0.409,1.189,1.081,1.29,1.917c0.585,4.758,2.909,8.995,6.37,12.246
				C85.927,262.411,104.043,246.65,110.672,237.528z"/> </g> <g> <path style="fill:#FFE1B2;" d="M111.189,181.161H66.123c-7.308,0-13.255,5.947-13.255,13.255v15.906
				c0,20.465,15.461,37.114,34.463,37.114s34.463-16.649,34.463-37.114v-18.557C121.793,185.918,117.037,181.161,111.189,181.161z"/> </g> <g> <path style="fill:#5C546A;" d="M105.887,152H71.424c-4.986,0-9.177,3.459-10.306,8.102c-9.126,1.16-16.204,8.973-16.204,18.408
				v13.255c0,6.832,2.9,13.205,7.953,17.735v-15.084c0-7.308,5.947-13.255,13.255-13.255h45.066c5.848,0,10.604,4.757,10.604,10.604
				v17.732c5.054-4.529,7.953-10.902,7.953-17.732v-15.906C129.746,162.703,119.043,152,105.887,152z"/> </g> <g> <path style="fill:#D8DCE1;" d="M131.33,344h-88c-4.418,0-8-3.582-8-8v-44c0-4.418,3.582-8,8-8h88c4.418,0,8,3.582,8,8v44
				C139.33,340.418,135.749,344,131.33,344z"/> </g> <g> <circle style="fill:#FFFFFF;" cx="87.33" cy="316" r="8"/> </g> </g> <g> <g> <path style="fill:#00ABFF;" d="M497.052,325.006l-9.07-54.296h-0.026c-1.259-7.342-6.307-14.945-14.901-17.351
				c-0.106-0.03-0.212-0.053-0.321-0.069l-21.161-3.175c-0.129-0.019-0.406-0.03-0.538-0.03c-1.338,0-2.467,0.998-2.63,2.327
				c-1.127,9.149-8.691,16.333-18.425,18.297h-10.62c-9.735-1.965-17.299-9.147-18.424-18.297c-0.166-1.368-1.398-2.397-2.698-2.326
				c-0.155-0.009-0.308,0.004-0.471,0.028l-21.161,3.175c-0.109,0.016-0.215,0.039-0.321,0.069
				c-8.594,2.406-13.641,10.009-14.901,17.351h-0.026l-9.07,54.296c-1.878,9.86,5.68,18.994,15.717,18.994h0.665h112h0.665
				C491.371,344,498.93,334.866,497.052,325.006z"/> </g> <g> <path style="fill:#FDC88E;" d="M424.669,247.435c-9.26,0-17.661-3.974-23.86-10.396c-0.005,3.849-0.145,9.404-1.165,13.457
				c0.669,0.409,1.189,1.081,1.29,1.917c1.323,10.764,11.525,18.88,23.734,18.88c12.206,0,22.409-8.117,23.734-18.88
				c0.103-0.837,0.611-1.508,1.291-1.915c-1.021-4.054-1.161-9.609-1.165-13.459C442.331,243.461,433.929,247.435,424.669,247.435z"/> </g> <g> <path style="fill:#FFB980;" d="M448.011,237.528c-6.147,6.123-14.329,9.907-23.342,9.907c-9.26,0-17.661-3.974-23.86-10.396
				c-0.005,3.849-0.145,9.404-1.165,13.457c0.669,0.409,1.189,1.081,1.29,1.917c0.585,4.758,2.909,8.995,6.37,12.246
				C423.266,262.411,441.383,246.65,448.011,237.528z"/> </g> <g> <path style="fill:#FFE1B2;" d="M448.528,181.161h-45.066c-7.308,0-13.255,5.947-13.255,13.255v15.906
				c0,20.465,15.461,37.114,34.463,37.114c19.002,0,34.463-16.649,34.463-37.114v-18.557
				C459.132,185.918,454.376,181.161,448.528,181.161z"/> </g> <g> <path style="fill:#7E5C62;" d="M443.226,152h-34.463c-4.986,0-9.177,3.459-10.306,8.102c-9.126,1.16-16.204,8.973-16.204,18.408
				v13.255c0,6.832,2.9,13.205,7.953,17.735v-15.084c0-7.308,5.947-13.255,13.255-13.255h45.066c5.848,0,10.604,4.757,10.604,10.604
				v17.732c5.054-4.529,7.953-10.902,7.953-17.732v-15.906C467.085,162.703,456.383,152,443.226,152z"/> </g> <g> <path style="fill:#D8DCE1;" d="M468.669,344h-88c-4.418,0-8-3.582-8-8v-44c0-4.418,3.582-8,8-8h88c4.418,0,8,3.582,8,8v44
				C476.669,340.418,473.088,344,468.669,344z"/> </g> <g> <circle style="fill:#FFFFFF;" cx="424.669" cy="316" r="8"/> </g> </g> </g>                
    </symbol>
    <symbol id="icon_phone" viewBox="0 0 16 16">
       <path fill="currentColor" d="M11 10c-1 1-1 2-2 2s-2-1-3-2-2-2-2-3 1-1 2-2-2-4-3-4-3 3-3 3c0 2 2.055 6.055 4 8s6 4 8 4c0 0 3-2 3-3s-3-4-4-3z"/> 
    </symbol>
    <symbol id="icon_power" viewBox="0 0 16 16">
       <path fill="currentColor" d="M6 0l-6 8h6l-4 8 14-10h-8l6-6z"/> 
    </symbol>
    <symbol id="icon_skype" viewBox="0 0 16 16">
       <path fill="currentColor" d="M6.65 0.584c-0.025-0.016-0.053-0.028-0.078-0.041-0.028 0.006-0.053 0.009-0.081 0.016l0.159 0.025z"/> <path fill="currentColor" d="M0.575 6.578c-0.006 0.028-0.009 0.056-0.012 0.081 0.016 0.025 0.025 0.050 0.041 0.075l-0.028-0.156z"/> <path fill="currentColor" d="M15.419 9.416c0.006-0.028 0.009-0.056 0.016-0.084-0.016-0.025-0.025-0.050-0.041-0.075l0.025 0.159z"/> <path fill="currentColor" d="M9.25 15.359c0.025 0.016 0.053 0.028 0.078 0.041 0.028-0.006 0.056-0.009 0.084-0.012l-0.162-0.028z"/> <path fill="currentColor" d="M15.434 9.331c-0.006 0.028-0.009 0.056-0.016 0.084l-0.028-0.162c0.016 0.028 0.028 0.053 0.044 0.078 0.081-0.45 0.125-0.909 0.125-1.369 0-1.019-0.2-2.009-0.594-2.941-0.381-0.9-0.925-1.709-1.619-2.403s-1.503-1.238-2.4-1.619c-0.931-0.394-1.922-0.594-2.941-0.594-0.481 0-0.963 0.044-1.431 0.134 0 0-0.003 0-0.003 0 0.025 0.012 0.053 0.025 0.078 0.041l-0.159-0.025c0.028-0.006 0.053-0.009 0.081-0.016-0.644-0.341-1.366-0.525-2.097-0.525-1.194 0-2.319 0.466-3.163 1.309s-1.309 1.969-1.309 3.163c0 0.759 0.197 1.509 0.563 2.169 0.006-0.028 0.009-0.056 0.012-0.081l0.028 0.159c-0.016-0.025-0.028-0.050-0.041-0.075-0.075 0.428-0.112 0.866-0.112 1.303 0 1.019 0.2 2.009 0.594 2.941 0.381 0.9 0.925 1.706 1.619 2.4s1.503 1.238 2.403 1.619c0.931 0.394 1.922 0.594 2.941 0.594 0.444 0 0.887-0.041 1.322-0.119-0.025-0.016-0.050-0.028-0.078-0.041l0.162 0.028c-0.028 0.006-0.056 0.009-0.084 0.012 0.669 0.378 1.428 0.581 2.2 0.581 1.194 0 2.319-0.466 3.162-1.309s1.309-1.969 1.309-3.162c-0.003-0.759-0.2-1.509-0.569-2.175zM8.034 12.591c-2.684 0-3.884-1.319-3.884-2.309 0-0.506 0.375-0.863 0.891-0.863 1.15 0 0.85 1.65 2.994 1.65 1.097 0 1.703-0.597 1.703-1.206 0-0.366-0.181-0.772-0.903-0.95l-2.388-0.597c-1.922-0.481-2.272-1.522-2.272-2.5 0-2.028 1.909-2.791 3.703-2.791 1.653 0 3.6 0.913 3.6 2.131 0 0.522-0.453 0.825-0.969 0.825-0.981 0-0.8-1.356-2.775-1.356-0.981 0-1.522 0.444-1.522 1.078s0.775 0.838 1.447 0.991l1.769 0.394c1.934 0.431 2.425 1.563 2.425 2.625 0 1.647-1.266 2.878-3.819 2.878z"/> 
    </symbol>
    <symbol id="icon_technology" viewBox="0 0 512 512">
       <g> <g> <path style="fill:#D8DCE1;" d="M184,408v32c0,19.555,14.102,35.875,32.672,39.328C220.125,497.894,236.445,512,256,512
			s35.875-14.105,39.328-32.672C313.898,475.875,328,459.554,328,440v-32H184z"/> </g> <g> <path style="fill:#B9BBC1;" d="M184,408v32c0,19.555,14.102,35.875,32.672,39.328C220.125,497.894,236.445,512,256,512V408H184z"/> </g> <g> <path style="fill:#8B8996;" d="M216.859,480c3.726,18.224,19.83,32,39.141,32s35.415-13.776,39.141-32H216.859z"/> </g> <g> <path style="fill:#FFD200;" d="M456,200C456,89.719,366.281,0,256,0S56,89.719,56,200c0,82.543,51.924,157.148,128,186.601V408
			h144v-21.396C404.078,357.153,456,282.549,456,200z"/> </g> <g> <path style="fill:#FFEF43;" d="M328,408v-21.396C404.078,357.153,456,282.549,456,200C456,89.719,366.281,0,256,0v408H328z"/> </g> <g> <circle style="fill:#FFFFFF;" cx="300" cy="148" r="60"/> </g> <g> <path style="fill:#FF4F19;" d="M327.001,184h-66.144l10.979-88.808c1.28-8.448-1.67-9.625-6.556-2.615l-78.932,110.678
			c-4.886,7.01-1.892,12.746,6.652,12.746h57.67l-11.842,104.809c-1.28,8.448,1.67,9.624,6.556,2.614l88.27-126.679
			C338.539,189.735,335.545,184,327.001,184z"/> </g> </g>                
    </symbol>
    <symbol id="icon_transport" viewBox="0 0 512.002 512.002">
       <g> <g> <g> <path style="fill:#FF4F19;" d="M317.024,306.849c0.352-3.383,2.797-6.18,6.109-6.965c3.305-0.781,6.758,0.602,8.594,3.469
				l49.016,76.629c7.367,11.57,11.258,24.937,11.258,38.656v85.363c0,3.383-2.125,6.398-5.312,7.535
				c-0.875,0.312-1.789,0.465-2.688,0.465c-2.352,0-4.641-1.039-6.195-2.934l-70.32-85.949c-1.344-1.648-1.977-3.766-1.766-5.883
				L317.024,306.849z"/> </g> <g> <path style="fill:#E9001E;" d="M194.977,306.849c-0.352-3.383-2.797-6.18-6.109-6.965c-3.305-0.781-6.758,0.602-8.594,3.469
				l-49.016,76.629c-7.367,11.57-11.258,24.937-11.258,38.656v85.363c0,3.383,2.125,6.398,5.312,7.535
				c0.875,0.312,1.789,0.465,2.688,0.465c2.352,0,4.641-1.039,6.195-2.934l70.32-85.949c1.344-1.648,1.977-3.766,1.766-5.883
				L194.977,306.849z"/> </g> <g> <path style="fill:#FFD200;" d="M260.118,1.143c-2.531-1.523-5.703-1.523-8.234,0c-3.422,2.055-83.883,51.562-83.883,158.859
				c0,43.324,10.766,158.594,25.047,268.125c2.07,15.891,15.703,27.875,31.695,27.875h62.516c15.992,0,29.625-11.984,31.695-27.875
				c14.281-109.531,25.047-224.801,25.047-268.125C344.001,52.705,263.54,3.197,260.118,1.143z"/> </g> <g> <path style="fill:#FF9600;" d="M256.001,456.002h-31.258c-15.992,0-29.625-11.984-31.695-27.875
				c-14.281-109.531-25.047-224.801-25.047-268.125c0-107.297,80.461-156.805,83.883-158.859c1.261-0.759,2.682-1.138,4.103-1.141
				h0.015V456.002z"/> </g> <g> <circle style="fill:#53DCFF;" cx="256.001" cy="168.002" r="48"/> </g> <g> <g> <path style="fill:#FF4F19;" d="M256.001,512.002c-4.422,0-8-3.582-8-8v-192c0-4.418,3.578-8,8-8s8,3.582,8,8v192
					C264.001,508.42,260.423,512.002,256.001,512.002z"/> </g> </g> <g> <path style="fill:#FF4F19;" d="M251.884,1.143c-2.288,1.374-38.98,23.989-63.071,70.859h134.376
				c-24.091-46.87-60.783-69.486-63.071-70.859C257.587-0.381,254.415-0.381,251.884,1.143z"/> </g> <g> <path style="fill:#E9001E;" d="M256.001,0c-1.426,0-2.852,0.381-4.117,1.143c-2.288,1.374-38.98,23.989-63.071,70.859h67.188V0z"/> </g> <g> <path style="fill:#B3F4FF;" d="M304.001,168.002c0-26.51-21.49-48-48-48v96C282.511,216.002,304.001,194.512,304.001,168.002z"/> </g> </g> <g> <g> <path style="fill:#5C546A;" d="M256.001,224.002c-30.875,0-56-25.121-56-56s25.125-56,56-56s56,25.121,56,56
				S286.876,224.002,256.001,224.002z M256.001,128.002c-22.055,0-40,17.945-40,40s17.945,40,40,40s40-17.945,40-40
				S278.056,128.002,256.001,128.002z"/> </g> </g> </g>                
    </symbol>
    <symbol id="icon_trophy" viewBox="0 0 512 512">
       <g> <g> <rect x="232" y="360" style="fill:#FF4F19;" width="48" height="120"/> </g> <g> <path style="fill:#FF9600;" d="M319.969,448h-128c-13.234,0-24,10.766-24,24v32c0,4.422,3.578,8,8,8h160c4.422,0,8-3.578,8-8v-32
			C343.969,458.765,333.203,448,319.969,448z"/> </g> <g> <path style="fill:#FFD200;" d="M319.969,448H256v64h79.969c4.422,0,8-3.578,8-8v-32C343.969,458.765,333.203,448,319.969,448z"/> </g> <g> <g> <path style="fill:#FF9600;" d="M135.992,304.008c-2.102,0-4.242-0.422-6.297-1.305C52.625,269.68,0.516,183.5,0.031,88.273
				c-0.047-8.609,3.273-16.711,9.352-22.82C15.445,59.359,23.516,56,32.094,56H128c8.836,0,16,7.164,16,16s-7.164,16-16,16H32.094
				c0.359,82.789,44.672,157.211,110.211,185.297c8.117,3.477,11.883,12.883,8.398,21.008
				C148.109,300.367,142.203,304.008,135.992,304.008z"/> </g> </g> <g> <g> <path style="fill:#FF9600;" d="M376.008,304.008c-6.211,0-12.117-3.641-14.711-9.703c-3.484-8.125,0.281-17.531,8.398-21.008
				c65.539-28.086,109.852-102.508,110.273-185.18L384,88c-8.836,0-16-7.164-16-16s7.164-16,16-16h95.906
				c8.578,0,16.648,3.359,22.711,9.453c6.078,6.109,9.398,14.211,9.352,22.828c-0.484,95.219-52.594,181.398-129.664,214.422
				C380.25,303.586,378.109,304.008,376.008,304.008z"/> </g> </g> <g> <path style="fill:#FFD200;" d="M391.969,8h-272c-4.422,0-8,3.578-8,8v216c0,79.398,64.602,144,144,144s144-64.602,144-144V16
			C399.969,11.578,396.39,8,391.969,8z"/> </g> <g> <path style="fill:none;stroke:#646464;stroke-width:2;stroke-linecap:round;stroke-linejoin:round;stroke-miterlimit:10;" d="
			M127.972,272.812"/> </g> <g> <path style="fill:#FF9600;" d="M256,8H119.969c-4.422,0-8,3.578-8,8v216c0,79.398,64.602,144,144,144
			c0.011,0,0.021-0.001,0.031-0.001V8z"/> </g> <g> <path style="fill:#FFD200;" d="M266.787,111.858l15.531,47.799h50.259c11.017,0,15.597,14.098,6.685,20.573l-40.66,29.541
			l15.531,47.799c3.404,10.478-8.588,19.19-17.5,12.715l-40.66-29.541l-40.66,29.541c-8.913,6.476-20.905-2.237-17.501-12.715
			l15.531-47.799l-40.66-29.541c-8.913-6.476-4.332-20.573,6.685-20.573h50.259l15.531-47.799
			C248.559,101.381,263.382,101.381,266.787,111.858z"/> </g> <g> <path style="fill:#FFFFFF;" d="M332.577,159.657h-50.259l-15.531-47.799c-1.698-5.228-6.24-7.843-10.787-7.854v136.762
			l40.631,29.52c8.913,6.476,20.905-2.237,17.5-12.715l-15.531-47.799l40.66-29.541
			C348.174,173.755,343.593,159.657,332.577,159.657z"/> </g> <g> <path style="fill:#FF4F19;" d="M112,32c-8.8,0-16-7.2-16-16l0,0c0-8.8,7.2-16,16-16h288c8.8,0,16,7.2,16,16l0,0
			c0,8.8-7.2,16-16,16H112z"/> </g> </g>                
    </symbol>
    <symbol id="icon_tw" viewBox="0 0 16 16">
       <path fill="currentColor" d="M16 3.538c-0.588 0.263-1.222 0.438-1.884 0.516 0.678-0.406 1.197-1.050 1.444-1.816-0.634 0.375-1.338 0.65-2.084 0.797-0.6-0.638-1.453-1.034-2.397-1.034-1.813 0-3.281 1.469-3.281 3.281 0 0.256 0.028 0.506 0.084 0.747-2.728-0.138-5.147-1.444-6.766-3.431-0.281 0.484-0.444 1.050-0.444 1.65 0 1.138 0.578 2.144 1.459 2.731-0.538-0.016-1.044-0.166-1.488-0.409 0 0.013 0 0.028 0 0.041 0 1.591 1.131 2.919 2.634 3.219-0.275 0.075-0.566 0.116-0.866 0.116-0.212 0-0.416-0.022-0.619-0.059 0.419 1.303 1.631 2.253 3.066 2.281-1.125 0.881-2.538 1.406-4.078 1.406-0.266 0-0.525-0.016-0.784-0.047 1.456 0.934 3.181 1.475 5.034 1.475 6.037 0 9.341-5.003 9.341-9.341 0-0.144-0.003-0.284-0.009-0.425 0.641-0.459 1.197-1.038 1.637-1.697z"/> 
    </symbol>
    <symbol id="icon_vk" viewBox="0 0 548.358 548.358">
       <g> <path fill="currentColor" d="M545.451,400.298c-0.664-1.431-1.283-2.618-1.858-3.569c-9.514-17.135-27.695-38.167-54.532-63.102l-0.567-0.571
		l-0.284-0.28l-0.287-0.287h-0.288c-12.18-11.611-19.893-19.418-23.123-23.415c-5.91-7.614-7.234-15.321-4.004-23.13
		c2.282-5.9,10.854-18.36,25.696-37.397c7.807-10.089,13.99-18.175,18.556-24.267c32.931-43.78,47.208-71.756,42.828-83.939
		l-1.701-2.847c-1.143-1.714-4.093-3.282-8.846-4.712c-4.764-1.427-10.853-1.663-18.278-0.712l-82.224,0.568
		c-1.332-0.472-3.234-0.428-5.712,0.144c-2.475,0.572-3.713,0.859-3.713,0.859l-1.431,0.715l-1.136,0.859
		c-0.952,0.568-1.999,1.567-3.142,2.995c-1.137,1.423-2.088,3.093-2.848,4.996c-8.952,23.031-19.13,44.444-30.553,64.238
		c-7.043,11.803-13.511,22.032-19.418,30.693c-5.899,8.658-10.848,15.037-14.842,19.126c-4,4.093-7.61,7.372-10.852,9.849
		c-3.237,2.478-5.708,3.525-7.419,3.142c-1.715-0.383-3.33-0.763-4.859-1.143c-2.663-1.714-4.805-4.045-6.42-6.995
		c-1.622-2.95-2.714-6.663-3.285-11.136c-0.568-4.476-0.904-8.326-1-11.563c-0.089-3.233-0.048-7.806,0.145-13.706
		c0.198-5.903,0.287-9.897,0.287-11.991c0-7.234,0.141-15.085,0.424-23.555c0.288-8.47,0.521-15.181,0.716-20.125
		c0.194-4.949,0.284-10.185,0.284-15.705s-0.336-9.849-1-12.991c-0.656-3.138-1.663-6.184-2.99-9.137
		c-1.335-2.95-3.289-5.232-5.853-6.852c-2.569-1.618-5.763-2.902-9.564-3.856c-10.089-2.283-22.936-3.518-38.547-3.71
		c-35.401-0.38-58.148,1.906-68.236,6.855c-3.997,2.091-7.614,4.948-10.848,8.562c-3.427,4.189-3.905,6.475-1.431,6.851
		c11.422,1.711,19.508,5.804,24.267,12.275l1.715,3.429c1.334,2.474,2.666,6.854,3.999,13.134c1.331,6.28,2.19,13.227,2.568,20.837
		c0.95,13.897,0.95,25.793,0,35.689c-0.953,9.9-1.853,17.607-2.712,23.127c-0.859,5.52-2.143,9.993-3.855,13.418
		c-1.715,3.426-2.856,5.52-3.428,6.28c-0.571,0.76-1.047,1.239-1.425,1.427c-2.474,0.948-5.047,1.431-7.71,1.431
		c-2.667,0-5.901-1.334-9.707-4c-3.805-2.666-7.754-6.328-11.847-10.992c-4.093-4.665-8.709-11.184-13.85-19.558
		c-5.137-8.374-10.467-18.271-15.987-29.691l-4.567-8.282c-2.855-5.328-6.755-13.086-11.704-23.267
		c-4.952-10.185-9.329-20.037-13.134-29.554c-1.521-3.997-3.806-7.04-6.851-9.134l-1.429-0.859c-0.95-0.76-2.475-1.567-4.567-2.427
		c-2.095-0.859-4.281-1.475-6.567-1.854l-78.229,0.568c-7.994,0-13.418,1.811-16.274,5.428l-1.143,1.711
		C0.288,140.146,0,141.668,0,143.763c0,2.094,0.571,4.664,1.714,7.707c11.42,26.84,23.839,52.725,37.257,77.659
		c13.418,24.934,25.078,45.019,34.973,60.237c9.897,15.229,19.985,29.602,30.264,43.112c10.279,13.515,17.083,22.176,20.412,25.981
		c3.333,3.812,5.951,6.662,7.854,8.565l7.139,6.851c4.568,4.569,11.276,10.041,20.127,16.416
		c8.853,6.379,18.654,12.659,29.408,18.85c10.756,6.181,23.269,11.225,37.546,15.126c14.275,3.905,28.169,5.472,41.684,4.716h32.834
		c6.659-0.575,11.704-2.669,15.133-6.283l1.136-1.431c0.764-1.136,1.479-2.901,2.139-5.276c0.668-2.379,1-5,1-7.851
		c-0.195-8.183,0.428-15.558,1.852-22.124c1.423-6.564,3.045-11.513,4.859-14.846c1.813-3.33,3.859-6.14,6.136-8.418
		c2.282-2.283,3.908-3.666,4.862-4.142c0.948-0.479,1.705-0.804,2.276-0.999c4.568-1.522,9.944-0.048,16.136,4.429
		c6.187,4.473,11.99,9.996,17.418,16.56c5.425,6.57,11.943,13.941,19.555,22.124c7.617,8.186,14.277,14.271,19.985,18.274
		l5.708,3.426c3.812,2.286,8.761,4.38,14.853,6.283c6.081,1.902,11.409,2.378,15.984,1.427l73.087-1.14
		c7.229,0,12.854-1.197,16.844-3.572c3.998-2.379,6.373-5,7.139-7.851c0.764-2.854,0.805-6.092,0.145-9.712
		C546.782,404.25,546.115,401.725,545.451,400.298z"/> </g>                
    </symbol></svg>